
<svg xmlns="http://www.w3.org/2000/svg" viewBox="0 0 32 32">
  <path fill="#000000" d="M32 24.795c-1.164.296-1.884.013-2.53-.957l-4.594-6.356-.664-.88-5.365 7.257c-.613.873-1.256 1.253-2.4.944l6.87-9.222-6.396-8.33c1.1-.214 1.86-.105 2.535.88l4.765 6.435 4.8-6.4c.615-.873 1.276-1.205 2.38-.883l-2.48 3.288-3.36 4.375c-.4.5-.345.842.023 1.325L32 24.795zM.008 15.427l.975-5.155c.623-3.038 1.805-5.867 5.142-6.834 1.64-.46 3.358-.78 4.912-.194.643.243 1.584.667 1.683 1.217.1.555-.597.943-1.272 1.297-1 .515-1.427.253-2.137-.637-.757-.954-1.76-1.26-3.062-.726-1.534.626-2.188 1.965-2.533 3.466-.453 1.94-.753 3.915-1.13 5.975h14.16c1.034 0 1.275.845 1.275 1.24 0 .38-.286 1.16-1.275 1.16h-14.25c-.51 3.307-.955 6.626-1.48 9.935-.1.666-.89 1.77-1.4 1.785-.518.016-1.228-.924-1.654-1.622C.52 24.392.037 23.075.008 21.697v-6.27z"/>
</svg>
