
<svg xmlns="http://www.w3.org/2000/svg" viewBox="0 0 32 32">
  <path fill="#47a248" d="M16.62 30l-2.627-0.923c0 0-0.317-14.108 4.687-15.096 0 0-3.070 1.01-3.254 8.902C15.242 30.784 16.62 30 16.62 30zM17.036 29.008l0.302-13.404c0 0 0.125-7.533 5.333-10.604 0.972-0.444 0.672-0.907 0.672-0.907-0.073-1.593-0.626-3.631-0.626-3.631s-3.248 2.333-3.664 6.077c-0.416 3.743-0.485 15.836-2.017 22.469z"/>
  <path fill="#47a248" d="M14.9 30l-2.921-1c0 0-0.228-13.993 4.775-15 0 0-3.146 0.936-3.402 8.828C13.1 31.03 14.9 30 14.9 30z"/>
</svg>
