
<svg xmlns="http://www.w3.org/2000/svg" viewBox="0 0 448 512">
  <path fill="#539e43" d="M224 508c-6.7 0-13.5-1.8-19.4-5.2l-61.7-36.5c-9.2-5.2-4.7-7-1.7-8 12.3-4.3 14.8-5.2 27.9-12.7.1-.1.3-.1.4-.2l47.4 28.1c.1.1.3.1.4.1.1-.1.3-.1.4-.2l184.3-106.5c.1-.1.2-.2.2-.3V149.8c0-.1-.1-.2-.2-.3L217.9 43c-.1-.1-.3-.2-.4-.2-.1 0-.3.1-.4.2L32.8 149.5c-.1.1-.2.2-.2.3v213.1c0 .1.1.2.2.3L65 380.7c13.8 6.9 22.4 6.9 30 6.9 24.7 0 38.9-14.9 38.9-40.8V172.6c0-2.3 1.9-4.2 4.2-4.2h23.8c2.3 0 4.2 1.9 4.2 4.2v174.6c0 44.1-24 69.5-65.8 69.5-12.8 0-23-1-32.2-6.9L16 400.2c-5.9-3.4-9.7-9.7-9.7-16.6v-213c0-6.9 3.8-13.3 9.7-16.5L203.9 44.5c5.8-3.3 13.5-3.3 19.3 0l187.7 108.5c5.9 3.4 9.7 9.7 9.7 16.5v213.1c0 6.9-3.8 13.3-9.7 16.6L223.8 507.9c-6 3.3-12.6 4.1-19.4 4.1zm149.1-210.1c0-39.1-31.8-49.1-98.5-56.3-67.3-7.2-74.5-11-74.5-23.7 0-10.6 4.7-24.8 45.3-24.8 36.3 0 49.8 7.9 55.3 32.2.5 2.1 2.3 3.5 4.4 3.5h24.4c1.3 0 2.4-.5 3.2-1.5.8-.9 1.2-2.1 1.1-3.4-2.9-34.8-26.1-51-88.3-51-50.4 0-80.4 21.3-80.4 57.1 0 38.8 30 49.6 98.6 54.4 72.8 5.1 74.4 12.7 74.4 23 0 17.7-14.3 25.4-47.8 25.4-42.2 0-51.5-10.6-54.6-31.6-.4-2.1-2.2-3.7-4.4-3.7h-24.3c-2.3 0-4.2 1.9-4.2 4.2 0 24.8 13.5 54.5 87.6 54.5 52.3-.1 82.2-20.9 82.2-56.3z"/>
</svg>
